<?xml version="1.0" encoding="UTF-8"?>
<svg width="42px" height="42px" viewBox="0 0 42 42" version="1.1" xmlns="http://www.w3.org/2000/svg" xmlns:xlink="http://www.w3.org/1999/xlink">
    <title>ge monogram</title>
    <g id="Symbols" stroke="none" stroke-width="1" fill="none" fill-rule="evenodd" fill-opacity="0.87" opacity="0.900000036">
        <g id="header" transform="translate(-96.000000, -19.000000)" fill="#FFFFFF" fill-rule="nonzero">
            <path d="M117.001457,61 C105.423357,61 96,51.6329887 96,39.9985428 C96,28.4233572 105.423357,19 117.001457,19 C128.575671,19 138.000971,28.4233572 138.000971,39.9985428 C138.000971,51.6329887 128.575671,61 117.001457,61 Z M117.001457,19.9870238 C105.947956,19.9870238 96.9879953,28.9469849 96.9879953,39.9985428 C96.9879953,51.0510721 105.947956,60.0100618 117.001457,60.0100618 C128.053015,60.0100618 137.011033,51.0510721 137.011033,39.9985428 C137.011033,29.0052737 128.053987,19.9870238 117.001457,19.9870238 Z M134.79703,45.9857748 L134.688224,46.0081188 L134.627021,45.9323433 C134.630907,45.899313 135.332316,43.8290889 135.326487,41.4528485 C135.317743,38.8929984 134.27826,37.3230865 132.940532,37.3230865 C132.126431,37.3230865 131.545486,37.9059746 131.545486,38.7773923 C131.545486,40.3482756 133.465131,40.4648532 133.465131,43.8970925 C133.465131,45.2940809 133.174658,46.6288946 132.709319,48.0851433 C130.556519,55.354729 123.691069,58.7286795 117.0034,58.7286795 C113.918951,58.7286795 111.728263,58.0952744 111.075428,57.8028589 C111.049199,57.7892582 111.026854,57.7377698 111.047256,57.6862813 L111.131774,57.627021 C111.396017,57.7319409 113.277774,58.3226008 115.60544,58.3226008 C118.16529,58.3226008 119.677885,57.2763167 119.677885,55.9939629 C119.677885,55.182777 119.03768,54.5425716 118.222608,54.5425716 C116.651724,54.5425716 116.535147,56.5195337 113.162168,56.5195337 C111.707862,56.5195337 110.429394,56.2290611 108.914857,55.7637222 C101.700645,53.5545764 98.2625772,46.7464437 98.2683987,39.9985428 C98.2713205,36.712997 99.1913122,34.0968011 99.2068559,34.0705711 L99.3108042,34.0530844 L99.3720075,34.1288599 C99.2874887,34.4008743 98.6764277,36.2777739 98.6764277,38.6034973 C98.6764277,41.1633474 99.7227118,42.6749705 101.06044,42.6749705 C101.817223,42.6749705 102.4584,42.0940254 102.4584,41.2789536 C102.4584,39.7080702 100.537784,39.5341753 100.537784,36.1592533 C100.537784,34.7049476 100.828256,33.4255083 101.293595,31.9129137 C103.504684,24.7006453 110.310874,21.318923 117.001457,21.2674346 C120.110194,21.2441191 122.831309,22.174797 122.933315,22.2564014 L122.951773,22.3613212 L122.875026,22.41961 C122.842967,22.4157241 121.073902,21.6754562 118.396503,21.6754562 C115.894941,21.6744848 114.325029,22.7217403 114.325029,24.0604399 C114.325029,24.817223 114.906946,25.4574284 115.779335,25.4574284 C117.350219,25.4574284 117.466796,23.5368122 120.839775,23.5368122 C122.294081,23.5368122 123.57352,23.8272847 125.087086,24.2935952 C132.358615,26.5037124 135.672334,33.3691624 135.731594,39.9995143 C135.764624,43.3967802 134.806745,45.9673166 134.79703,45.9857748 L134.79703,45.9857748 Z M124.795642,40.9894525 C122.81868,40.9894525 121.305114,42.4447297 121.305114,44.1885365 C121.305114,45.6428423 122.176532,46.8047325 123.341336,46.8047325 C123.749358,46.8047325 124.155437,46.5715773 124.155437,46.048921 C124.155437,45.2940809 123.152869,45.1085282 123.230588,43.9777253 C123.280133,43.2316286 123.982513,42.7332593 124.679065,42.7332593 C126.076053,42.7332593 126.728888,44.0865311 126.728888,45.4815766 C126.669627,47.6343765 125.087086,49.1323989 123.22573,49.1323989 C120.780515,49.1323989 119.212546,46.8047325 119.212546,44.3041427 C119.212546,40.5804594 121.654847,39.1261536 122.934286,38.7783637 C122.947887,38.7773923 126.280064,39.3729096 126.176115,37.9040316 C126.130456,37.2589688 125.169662,37.0102699 124.472139,36.982097 C123.700784,36.9519811 122.9236,37.2298244 122.9236,37.2298244 C122.51655,37.0248421 122.235792,36.6245923 122.062869,36.1602248 C124.447852,34.3571577 126.13337,32.6123794 126.13337,30.6344459 C126.13337,29.5871903 125.434876,28.6555409 124.097148,28.6555409 C121.712164,28.6555409 119.908126,31.68073 119.908126,34.4144751 C119.908126,34.879814 119.908126,35.345153 120.025675,35.7541461 C118.512109,36.858719 117.388106,37.544584 115.350912,38.766706 C115.350912,38.5112067 115.404344,37.8554576 115.574353,37.0024981 C116.272847,36.2457151 117.230727,35.1139407 117.230727,34.2415516 C117.230727,33.8345014 116.999514,33.4847686 116.532232,33.4847686 C115.369371,33.4847686 114.49601,35.2305184 114.264798,36.4516689 C113.740198,37.0918743 112.693914,37.9079176 111.820554,37.9079176 C111.12206,37.9079176 110.890847,37.2667407 110.830616,37.0355284 C113.041704,36.2777739 115.776421,33.2525848 115.776421,30.5188398 C115.776421,29.9369232 115.544237,28.6574839 113.798487,28.6574839 C111.180348,28.6574839 108.96926,32.5550621 108.96926,35.5792797 C108.038582,35.5792797 107.68982,34.590313 107.68982,33.8354729 C107.68982,33.0786899 107.980293,32.3219069 107.980293,32.0906946 C107.980293,31.8565679 107.863715,31.5660953 107.514954,31.5660953 C106.641593,31.5660953 106.117965,32.728957 106.117965,34.0676567 C106.177226,35.929984 107.398376,37.0928457 109.027548,37.2094234 C109.258761,38.3149677 110.248699,39.3612518 111.469849,39.3612518 C112.226632,39.3612518 113.15731,39.1290681 113.797516,38.548123 C113.738255,38.9551731 113.680938,39.3039345 113.622649,39.6526959 C111.062799,40.9913955 109.201443,41.9220734 107.513982,43.4336965 C106.18014,44.6538755 105.423357,46.2820762 105.423357,47.562487 C105.423357,49.3072653 106.529873,50.935466 108.798279,50.935466 C111.473735,50.935466 113.510929,48.782666 114.498924,45.8167372 C114.966206,44.4207203 115.151759,42.3893554 115.268337,40.527028 C117.943793,39.0154049 119.212546,38.1391298 120.607591,37.1491916 C120.781486,37.4396641 120.958296,37.6737909 121.190479,37.8476858 C119.968358,38.4878912 117.060718,40.2909583 117.060718,44.5372979 C117.060718,47.5634585 119.097911,50.935466 123.110124,50.935466 C126.426757,50.935466 128.695163,48.2026924 128.695163,45.5855249 C128.69322,43.1995698 127.354521,40.9894525 124.795642,40.9894525 L124.795642,40.9894525 Z M108.798279,49.1323989 C107.92589,49.1722295 107.344945,48.6146 107.344945,47.6848935 C107.344945,45.1833322 110.812157,42.7964055 113.430296,41.5150232 C112.964957,45.0065228 111.786552,48.9954202 108.798279,49.1323989 L108.798279,49.1323989 Z M110.717924,35.4044133 C110.717924,33.4837971 112.61231,29.8349178 113.771286,30.2205954 C115.138158,30.6762196 112.637569,34.3571577 110.717924,35.4044133 Z M121.713136,34.5310527 C121.713136,32.146069 123.327736,29.8261745 124.20984,30.2672264 C125.21435,30.7704531 123.458886,33.0184581 121.713136,34.5310527 Z" id="ge-monogram"></path>
        </g>
    </g>
</svg>